<svg xmlns="http://www.w3.org/2000/svg" viewBox="0 0 64 64" width="64" height="64">
  <defs>
    <linearGradient id="g" x1="0" y1="0" x2="1" y2="1">
      <stop offset="0" stop-color="#E11D48"/>
      <stop offset="0.5" stop-color="#FF4D2D"/>
      <stop offset="1" stop-color="#FF8A00"/>
    </linearGradient>
  </defs>
  <rect width="64" height="64" rx="14" fill="url(#g)"/>
  <path fill="#fff" d="M41 14c-2.4 0-4.4 1.6-5.1 3.8-1.3-1-2.9-1.6-4.7-1.6-3.7 0-6.8 2.6-7.6 6.1-3.2.7-5.6 3.5-5.6 6.9 0 2.1.9 4 2.4 5.3-1.7 1.7-2.8 4-2.8 6.6 0 .8.6 1.4 1.4 1.4h4.1l-1.9 4.8c-.3.9.3 1.7 1.3 1.7h3.2c.6 0 1.1-.4 1.3-.9l2.2-5.6h3.3l-1.2 4.8c-.2.9.4 1.7 1.3 1.7h3.2c.7 0 1.2-.4 1.3-1l1.6-6.6c2.9-1.4 5-4.2 5.4-7.5l3.6-2.1c.6-.3.8-1 .6-1.6l-1.4-3.4 2.6-1.8c.8-.6.6-1.9-.4-2.2l-5.6-1.7c-.7-3.7-3.9-6.5-7.8-6.8zM39 23.5a1.6 1.6 0 1 1 0-3.2 1.6 1.6 0 0 1 0 3.2z"/>
</svg>
